<svg width="34" height="25" viewBox="0 0 34 25" fill="none" xmlns="http://www.w3.org/2000/svg">
<g filter="url(#filter0_i_512_765)">
<path d="M0.374268 6.41265C0.374268 4.23567 2.13905 2.47089 4.31603 2.47089H28.0159C30.1928 2.47089 31.9576 4.23567 31.9576 6.41265V20.2088C31.9576 22.3858 30.1928 24.1506 28.0159 24.1506H4.31603C2.13905 24.1506 0.374268 22.3858 0.374268 20.2088V6.41265Z" fill="#4D0C6C"/>
</g>
<g filter="url(#filter1_i_512_765)">
<path d="M21.647 2.47241H28.2488V5.17063C28.2488 5.97614 27.3665 6.62913 26.2781 6.62913H23.6177C22.5293 6.62913 21.647 5.97614 21.647 5.17063V2.47241Z" fill="#FF9B2F"/>
</g>
<g filter="url(#filter2_i_512_765)">
<path d="M9.53884 2.47088L3.87256 2.47088L3.87256 1.48544C3.87256 0.941196 4.31376 0.5 4.858 0.5L8.5534 0.5C9.09764 0.5 9.53884 0.941197 9.53884 1.48544V2.47088Z" fill="#B4E50D"/>
</g>
<g filter="url(#filter3_i_512_765)">
<path d="M1.21189 7.20099C1.86498 7.20099 2.39442 7.73042 2.39442 8.38352V20.4552C2.39442 20.4552 2.37461 21.9614 2.84485 22.7217C3.31501 23.4818 4.90677 24.1503 4.90729 24.1506H4.31603C2.13905 24.1506 0.374268 22.3858 0.374268 20.2088V7.20099H1.21189Z" fill="#B4E50D"/>
</g>
<g filter="url(#filter4_i_512_765)">
<path d="M31.9576 20.2088C31.9576 22.3858 30.1928 24.1506 28.0159 24.1506H15.0081V23.313C15.0081 22.6599 15.5375 22.1304 16.1906 22.1304H28.2622C28.2627 22.1304 29.7686 22.1502 30.5287 21.68C31.2887 21.2099 31.9571 19.6188 31.9576 19.6176V20.2088Z" fill="#B4E50D"/>
</g>
<g filter="url(#filter5_i_512_765)">
<path d="M16.0252 6.62909C17.3947 6.62909 18.5748 6.9132 19.5654 7.48139C20.5707 8.03501 21.3502 8.81443 21.9038 9.81969C22.4574 10.825 22.7342 11.9978 22.7342 13.3382C22.7342 14.7076 22.4501 15.8877 21.8819 16.8784C21.3283 17.8691 20.5489 18.634 19.5436 19.173C18.5383 19.7121 17.3437 19.9817 15.9596 19.9817C14.6921 19.9817 13.5849 19.7267 12.6379 19.2167C11.6909 18.6923 10.9551 17.9493 10.4306 16.9877C9.92073 16.0262 9.66577 14.8825 9.66577 13.5567C9.66577 12.1726 9.928 10.9634 10.4525 9.92897C10.977 8.89457 11.72 8.086 12.6816 7.50323C13.6431 6.92047 14.7577 6.62909 16.0252 6.62909Z" fill="#B4E50D"/>
</g>
<g filter="url(#filter6_i_512_765)">
<path d="M16.0962 8.59998C17.0566 8.59998 17.8841 8.79923 18.5789 9.19769C19.2838 9.58593 19.8305 10.1325 20.2187 10.8375C20.6069 11.5424 20.8011 12.3649 20.8011 13.3049C20.8011 14.2653 20.6018 15.0928 20.2034 15.7876C19.8151 16.4823 19.2685 17.0187 18.5636 17.3968C17.8586 17.7748 17.0208 17.9638 16.0502 17.9638C15.1613 17.9638 14.3848 17.785 13.7207 17.4274C13.0566 17.0596 12.5407 16.5385 12.1729 15.8642C11.8153 15.1899 11.6365 14.3879 11.6365 13.4581C11.6365 12.4875 11.8204 11.6395 12.1882 10.9141C12.556 10.1887 13.0771 9.62167 13.7514 9.21299C14.4257 8.80431 15.2073 8.59998 16.0962 8.59998Z" fill="#4379F2"/>
</g>
<g filter="url(#filter7_i_512_765)">
<path d="M15.2968 12.1043C15.2147 12.2361 15.0813 12.3267 14.8965 12.3762C14.8213 12.3964 14.7492 12.4084 14.6805 12.4121C14.6426 12.4162 14.6071 12.4182 14.574 12.4187C14.6237 12.5583 14.6542 12.6946 14.6654 12.8278C14.678 12.9708 14.6543 13.0943 14.5941 13.1983C14.5349 13.3056 14.4299 13.3794 14.2794 13.4198C14.1288 13.4601 14.0092 13.4519 13.9207 13.3951C13.8296 13.3427 13.7662 13.2499 13.7305 13.1168C13.6854 12.9484 13.6794 12.7931 13.7121 12.651C13.6075 12.7257 13.4879 12.7811 13.3532 12.8172C13.1821 12.8631 13.0347 12.8605 12.911 12.8095C12.7882 12.7619 12.7021 12.6459 12.6527 12.4615C12.6136 12.3156 12.6073 12.1099 12.6972 11.9707C12.7793 11.839 12.9127 11.7484 13.0975 11.6988C13.1728 11.6787 13.2448 11.6667 13.3135 11.6629C13.3514 11.6589 13.3869 11.6568 13.42 11.6564C13.3704 11.5168 13.3398 11.3804 13.3286 11.2472C13.316 11.1042 13.3397 10.9807 13.3999 10.8768C13.4592 10.7694 13.5641 10.6956 13.7147 10.6553C13.8652 10.6149 13.9848 10.6231 14.0733 10.6799C14.1644 10.7324 14.2278 10.8251 14.2635 10.9583C14.3086 11.1267 14.3147 11.2819 14.282 11.4241C14.3865 11.3493 14.5062 11.2939 14.6408 11.2578C14.8119 11.212 14.9593 11.2146 15.083 11.2656C15.2058 11.3132 15.2919 11.4292 15.3413 11.6135C15.3855 11.7785 15.3933 11.9549 15.2968 12.1043Z" fill="#FF7EE2"/>
</g>
<g filter="url(#filter8_i_512_765)">
<path d="M16.583 10.3211C16.5323 10.4025 16.4499 10.4585 16.3358 10.4891C16.2893 10.5015 16.2448 10.509 16.2023 10.5113C16.1789 10.5138 16.157 10.515 16.1365 10.5153C16.1672 10.6015 16.1861 10.6858 16.193 10.7681C16.2008 10.8564 16.1861 10.9327 16.149 10.9969C16.1124 11.0632 16.0475 11.1088 15.9545 11.1337C15.8615 11.1587 15.7877 11.1536 15.7329 11.1185C15.6767 11.0861 15.6375 11.0288 15.6155 10.9466C15.5876 10.8425 15.5839 10.7466 15.6041 10.6588C15.5395 10.705 15.4656 10.7392 15.3824 10.7615C15.2767 10.7898 15.1856 10.7882 15.1092 10.7567C15.0334 10.7273 14.9802 10.6557 14.9497 10.5418C14.9255 10.4516 14.9216 10.3246 14.9772 10.2386C15.0279 10.1572 15.1103 10.1012 15.2244 10.0706C15.2709 10.0582 15.3154 10.0508 15.3579 10.0484C15.3813 10.046 15.4032 10.0447 15.4237 10.0444C15.393 9.95819 15.3741 9.87395 15.3672 9.79166C15.3594 9.70333 15.3741 9.62704 15.4112 9.56283C15.4479 9.49652 15.5127 9.45091 15.6057 9.42599C15.6987 9.40106 15.7725 9.40615 15.8273 9.44122C15.8835 9.47361 15.9227 9.53092 15.9447 9.61317C15.9726 9.71719 15.9763 9.8131 15.9561 9.90092C16.0207 9.85474 16.0946 9.8205 16.1778 9.79821C16.2835 9.7699 16.3746 9.77149 16.451 9.80299C16.5268 9.83239 16.58 9.90405 16.6105 10.0179C16.6378 10.1198 16.6427 10.2289 16.583 10.3211Z" fill="#FF7EE2"/>
</g>
<g filter="url(#filter9_i_512_765)">
<path d="M27.0492 11.6893C28.3916 11.6893 29.5485 11.9619 30.5196 12.507C31.505 13.0382 32.2691 13.7859 32.8119 14.7504C33.3546 15.7149 33.6259 16.8401 33.6259 18.1261C33.6259 19.44 33.3474 20.5722 32.7904 21.5227C32.2477 22.4731 31.4837 23.207 30.4982 23.7242C29.5128 24.2414 28.3416 24.5 26.9849 24.5C25.7424 24.5 24.657 24.2553 23.7286 23.7661C22.8003 23.2629 22.0791 22.5501 21.565 21.6275C21.0651 20.705 20.8152 19.6077 20.8152 18.3357C20.8152 17.0078 21.0723 15.8477 21.5864 14.8553C22.1005 13.8628 22.8289 13.087 23.7715 12.5279C24.7141 11.9688 25.8067 11.6893 27.0492 11.6893Z" fill="#F1D4FF"/>
</g>
<g filter="url(#filter10_i_512_765)">
<path fill-rule="evenodd" clip-rule="evenodd" d="M31.4024 15.9256C31.7539 16.3025 31.7364 16.8958 31.3635 17.251L27.1237 21.2885C26.755 21.6395 26.1759 21.6269 25.8226 21.2601L24.0344 19.4037C23.677 19.0326 23.685 18.439 24.0521 18.0779C24.4193 17.7167 25.0067 17.7247 25.3641 18.0957L26.5155 19.2911L30.0909 15.8863C30.4638 15.5312 31.051 15.5488 31.4024 15.9256Z" fill="#2D0640"/>
</g>
<defs>
<filter id="filter0_i_512_765" x="0.374268" y="2.47089" width="31.5833" height="22.1797" filterUnits="userSpaceOnUse" color-interpolation-filters="sRGB">
<feFlood flood-opacity="0" result="BackgroundImageFix"/>
<feBlend mode="normal" in="SourceGraphic" in2="BackgroundImageFix" result="shape"/>
<feColorMatrix in="SourceAlpha" type="matrix" values="0 0 0 0 0 0 0 0 0 0 0 0 0 0 0 0 0 0 127 0" result="hardAlpha"/>
<feOffset dy="0.5"/>
<feGaussianBlur stdDeviation="0.5"/>
<feComposite in2="hardAlpha" operator="arithmetic" k2="-1" k3="1"/>
<feColorMatrix type="matrix" values="0 0 0 0 0.178131 0 0 0 0 0.0252173 0 0 0 0 0.250563 0 0 0 1 0"/>
<feBlend mode="normal" in2="shape" result="effect1_innerShadow_512_765"/>
</filter>
<filter id="filter1_i_512_765" x="21.647" y="2.47241" width="6.60181" height="4.65674" filterUnits="userSpaceOnUse" color-interpolation-filters="sRGB">
<feFlood flood-opacity="0" result="BackgroundImageFix"/>
<feBlend mode="normal" in="SourceGraphic" in2="BackgroundImageFix" result="shape"/>
<feColorMatrix in="SourceAlpha" type="matrix" values="0 0 0 0 0 0 0 0 0 0 0 0 0 0 0 0 0 0 127 0" result="hardAlpha"/>
<feOffset dy="0.5"/>
<feGaussianBlur stdDeviation="0.5"/>
<feComposite in2="hardAlpha" operator="arithmetic" k2="-1" k3="1"/>
<feColorMatrix type="matrix" values="0 0 0 0 0.976471 0 0 0 0 0.329412 0 0 0 0 0.329412 0 0 0 1 0"/>
<feBlend mode="normal" in2="shape" result="effect1_innerShadow_512_765"/>
</filter>
<filter id="filter2_i_512_765" x="3.87256" y="0.5" width="5.66626" height="2.47089" filterUnits="userSpaceOnUse" color-interpolation-filters="sRGB">
<feFlood flood-opacity="0" result="BackgroundImageFix"/>
<feBlend mode="normal" in="SourceGraphic" in2="BackgroundImageFix" result="shape"/>
<feColorMatrix in="SourceAlpha" type="matrix" values="0 0 0 0 0 0 0 0 0 0 0 0 0 0 0 0 0 0 127 0" result="hardAlpha"/>
<feOffset dy="0.5"/>
<feGaussianBlur stdDeviation="0.5"/>
<feComposite in2="hardAlpha" operator="arithmetic" k2="-1" k3="1"/>
<feColorMatrix type="matrix" values="0 0 0 0 0.470588 0 0 0 0 0.784314 0 0 0 0 0.254902 0 0 0 1 0"/>
<feBlend mode="normal" in2="shape" result="effect1_innerShadow_512_765"/>
</filter>
<filter id="filter3_i_512_765" x="0.374268" y="7.20099" width="4.53296" height="17.4496" filterUnits="userSpaceOnUse" color-interpolation-filters="sRGB">
<feFlood flood-opacity="0" result="BackgroundImageFix"/>
<feBlend mode="normal" in="SourceGraphic" in2="BackgroundImageFix" result="shape"/>
<feColorMatrix in="SourceAlpha" type="matrix" values="0 0 0 0 0 0 0 0 0 0 0 0 0 0 0 0 0 0 127 0" result="hardAlpha"/>
<feOffset dy="0.5"/>
<feGaussianBlur stdDeviation="0.5"/>
<feComposite in2="hardAlpha" operator="arithmetic" k2="-1" k3="1"/>
<feColorMatrix type="matrix" values="0 0 0 0 0.470588 0 0 0 0 0.784314 0 0 0 0 0.254902 0 0 0 1 0"/>
<feBlend mode="normal" in2="shape" result="effect1_innerShadow_512_765"/>
</filter>
<filter id="filter4_i_512_765" x="15.0081" y="19.6176" width="16.9495" height="5.03302" filterUnits="userSpaceOnUse" color-interpolation-filters="sRGB">
<feFlood flood-opacity="0" result="BackgroundImageFix"/>
<feBlend mode="normal" in="SourceGraphic" in2="BackgroundImageFix" result="shape"/>
<feColorMatrix in="SourceAlpha" type="matrix" values="0 0 0 0 0 0 0 0 0 0 0 0 0 0 0 0 0 0 127 0" result="hardAlpha"/>
<feOffset dy="0.5"/>
<feGaussianBlur stdDeviation="0.5"/>
<feComposite in2="hardAlpha" operator="arithmetic" k2="-1" k3="1"/>
<feColorMatrix type="matrix" values="0 0 0 0 0.470588 0 0 0 0 0.784314 0 0 0 0 0.254902 0 0 0 1 0"/>
<feBlend mode="normal" in2="shape" result="effect1_innerShadow_512_765"/>
</filter>
<filter id="filter5_i_512_765" x="9.66577" y="6.62909" width="13.0684" height="13.8525" filterUnits="userSpaceOnUse" color-interpolation-filters="sRGB">
<feFlood flood-opacity="0" result="BackgroundImageFix"/>
<feBlend mode="normal" in="SourceGraphic" in2="BackgroundImageFix" result="shape"/>
<feColorMatrix in="SourceAlpha" type="matrix" values="0 0 0 0 0 0 0 0 0 0 0 0 0 0 0 0 0 0 127 0" result="hardAlpha"/>
<feOffset dy="0.5"/>
<feGaussianBlur stdDeviation="0.5"/>
<feComposite in2="hardAlpha" operator="arithmetic" k2="-1" k3="1"/>
<feColorMatrix type="matrix" values="0 0 0 0 0.470588 0 0 0 0 0.784314 0 0 0 0 0.254902 0 0 0 1 0"/>
<feBlend mode="normal" in2="shape" result="effect1_innerShadow_512_765"/>
</filter>
<filter id="filter6_i_512_765" x="11.6365" y="8.59998" width="9.16455" height="9.86383" filterUnits="userSpaceOnUse" color-interpolation-filters="sRGB">
<feFlood flood-opacity="0" result="BackgroundImageFix"/>
<feBlend mode="normal" in="SourceGraphic" in2="BackgroundImageFix" result="shape"/>
<feColorMatrix in="SourceAlpha" type="matrix" values="0 0 0 0 0 0 0 0 0 0 0 0 0 0 0 0 0 0 127 0" result="hardAlpha"/>
<feOffset dy="0.5"/>
<feGaussianBlur stdDeviation="0.5"/>
<feComposite in2="hardAlpha" operator="arithmetic" k2="-1" k3="1"/>
<feColorMatrix type="matrix" values="0 0 0 0 0.0666667 0 0 0 0 0.301961 0 0 0 0 0.827451 0 0 0 1 0"/>
<feBlend mode="normal" in2="shape" result="effect1_innerShadow_512_765"/>
</filter>
<filter id="filter7_i_512_765" x="12.6255" y="10.6301" width="2.74731" height="3.31482" filterUnits="userSpaceOnUse" color-interpolation-filters="sRGB">
<feFlood flood-opacity="0" result="BackgroundImageFix"/>
<feBlend mode="normal" in="SourceGraphic" in2="BackgroundImageFix" result="shape"/>
<feColorMatrix in="SourceAlpha" type="matrix" values="0 0 0 0 0 0 0 0 0 0 0 0 0 0 0 0 0 0 127 0" result="hardAlpha"/>
<feOffset dy="0.5"/>
<feGaussianBlur stdDeviation="0.5"/>
<feComposite in2="hardAlpha" operator="arithmetic" k2="-1" k3="1"/>
<feColorMatrix type="matrix" values="0 0 0 0 0.827451 0 0 0 0 0.219608 0 0 0 0 0.690196 0 0 0 1 0"/>
<feBlend mode="normal" in2="shape" result="effect1_innerShadow_512_765"/>
</filter>
<filter id="filter8_i_512_765" x="14.9329" y="9.41046" width="1.69702" height="2.23883" filterUnits="userSpaceOnUse" color-interpolation-filters="sRGB">
<feFlood flood-opacity="0" result="BackgroundImageFix"/>
<feBlend mode="normal" in="SourceGraphic" in2="BackgroundImageFix" result="shape"/>
<feColorMatrix in="SourceAlpha" type="matrix" values="0 0 0 0 0 0 0 0 0 0 0 0 0 0 0 0 0 0 127 0" result="hardAlpha"/>
<feOffset dy="0.5"/>
<feGaussianBlur stdDeviation="0.5"/>
<feComposite in2="hardAlpha" operator="arithmetic" k2="-1" k3="1"/>
<feColorMatrix type="matrix" values="0 0 0 0 0.827451 0 0 0 0 0.219608 0 0 0 0 0.690196 0 0 0 1 0"/>
<feBlend mode="normal" in2="shape" result="effect1_innerShadow_512_765"/>
</filter>
<filter id="filter9_i_512_765" x="20.8152" y="11.6893" width="12.8108" height="14.8107" filterUnits="userSpaceOnUse" color-interpolation-filters="sRGB">
<feFlood flood-opacity="0" result="BackgroundImageFix"/>
<feBlend mode="normal" in="SourceGraphic" in2="BackgroundImageFix" result="shape"/>
<feColorMatrix in="SourceAlpha" type="matrix" values="0 0 0 0 0 0 0 0 0 0 0 0 0 0 0 0 0 0 127 0" result="hardAlpha"/>
<feOffset dy="3"/>
<feGaussianBlur stdDeviation="1"/>
<feComposite in2="hardAlpha" operator="arithmetic" k2="-1" k3="1"/>
<feColorMatrix type="matrix" values="0 0 0 0 0.952941 0 0 0 0 0.972549 0 0 0 0 1 0 0 0 1 0"/>
<feBlend mode="normal" in2="shape" result="effect1_innerShadow_512_765"/>
</filter>
<filter id="filter10_i_512_765" x="23.7715" y="15.631" width="7.88354" height="6.41266" filterUnits="userSpaceOnUse" color-interpolation-filters="sRGB">
<feFlood flood-opacity="0" result="BackgroundImageFix"/>
<feBlend mode="normal" in="SourceGraphic" in2="BackgroundImageFix" result="shape"/>
<feColorMatrix in="SourceAlpha" type="matrix" values="0 0 0 0 0 0 0 0 0 0 0 0 0 0 0 0 0 0 127 0" result="hardAlpha"/>
<feOffset dy="0.5"/>
<feGaussianBlur stdDeviation="0.5"/>
<feComposite in2="hardAlpha" operator="arithmetic" k2="-1" k3="1"/>
<feColorMatrix type="matrix" values="0 0 0 0 0.303429 0 0 0 0 0.0464382 0 0 0 0 0.425162 0 0 0 1 0"/>
<feBlend mode="normal" in2="shape" result="effect1_innerShadow_512_765"/>
</filter>
</defs>
</svg>
