<svg width="35" height="26" viewBox="0 0 35 26" fill="none" xmlns="http://www.w3.org/2000/svg">
<path d="M0.374146 6.41265C0.374146 4.23567 2.13893 2.47089 4.31591 2.47089H28.0157C30.1927 2.47089 31.9575 4.23567 31.9575 6.41265V20.2088C31.9575 22.3858 30.1927 24.1506 28.0157 24.1506H4.3159C2.13893 24.1506 0.374146 22.3858 0.374146 20.2088V6.41265Z" fill="#2F2F2F"/>
<path d="M0.374146 6.41265C0.374146 4.23567 2.13893 2.47089 4.31591 2.47089H28.0157C30.1927 2.47089 31.9575 4.23567 31.9575 6.41265V20.2088C31.9575 22.3858 30.1927 24.1506 28.0157 24.1506H4.3159C2.13893 24.1506 0.374146 22.3858 0.374146 20.2088V6.41265Z" fill="#2F2F2F"/>
<path d="M21.6467 2.47241H28.2486V5.17063C28.2486 5.97614 27.3663 6.62913 26.2779 6.62913H23.6174C22.529 6.62913 21.6467 5.97614 21.6467 5.17063V2.47241Z" fill="#2F2F2F"/>
<path d="M9.53884 2.47088L3.87256 2.47088L3.87256 1.48544C3.87256 0.941196 4.31376 0.5 4.858 0.5L8.5534 0.5C9.09764 0.5 9.53884 0.941197 9.53884 1.48544V2.47088Z" fill="#2F2F2F"/>
<path d="M1.21177 7.20099C1.86486 7.20099 2.3943 7.73042 2.3943 8.38352V20.4552C2.3943 20.4552 2.37448 21.9614 2.84472 22.7217C3.31489 23.4818 4.90665 24.1503 4.90717 24.1506H4.31591C2.13893 24.1506 0.374146 22.3858 0.374146 20.2088V7.20099H1.21177Z" fill="#2F2F2F"/>
<path d="M31.9576 20.2088C31.9576 22.3858 30.1928 24.1506 28.0159 24.1506H15.0081V23.313C15.0081 22.6599 15.5375 22.1304 16.1906 22.1304H28.2622C28.2627 22.1304 29.7686 22.1502 30.5287 21.68C31.2887 21.2099 31.9571 19.6188 31.9576 19.6176V20.2088Z" fill="#2F2F2F"/>
<path d="M16.0249 6.62909C17.3944 6.62909 18.5745 6.9132 19.5652 7.48139C20.5705 8.03501 21.3499 8.81443 21.9036 9.81969C22.4572 10.825 22.734 11.9978 22.734 13.3382C22.734 14.7076 22.4499 15.8877 21.8817 16.8784C21.328 17.8691 20.5486 18.634 19.5434 19.173C18.5381 19.7121 17.3434 19.9817 15.9594 19.9817C14.6918 19.9817 13.5846 19.7267 12.6376 19.2167C11.6906 18.6923 10.9549 17.9493 10.4304 16.9877C9.92048 16.0262 9.66553 14.8825 9.66553 13.5567C9.66553 12.1726 9.92776 10.9634 10.4522 9.92897C10.9767 8.89457 11.7198 8.086 12.6813 7.50323C13.6429 6.92047 14.7574 6.62909 16.0249 6.62909Z" fill="#B0B0B0"/>
<path d="M16.0962 8.59998C17.0566 8.59998 17.8841 8.79923 18.5789 9.19769C19.2838 9.58593 19.8305 10.1325 20.2187 10.8375C20.6069 11.5424 20.8011 12.3649 20.8011 13.3049C20.8011 14.2653 20.6018 15.0928 20.2034 15.7876C19.8151 16.4823 19.2685 17.0187 18.5636 17.3968C17.8586 17.7748 17.0208 17.9638 16.0502 17.9638C15.1613 17.9638 14.3848 17.785 13.7207 17.4274C13.0566 17.0596 12.5407 16.5385 12.1729 15.8642C11.8153 15.1899 11.6365 14.3879 11.6365 13.4581C11.6365 12.4875 11.8204 11.6395 12.1882 10.9141C12.556 10.1887 13.0771 9.62167 13.7514 9.21299C14.4257 8.80431 15.2073 8.59998 16.0962 8.59998Z" fill="#2F2F2F"/>
<path d="M15.2965 12.1043C15.2145 12.2361 15.0811 12.3267 14.8963 12.3762C14.821 12.3964 14.749 12.4084 14.6803 12.4121C14.6424 12.4162 14.6069 12.4182 14.5738 12.4187C14.6234 12.5583 14.6539 12.6946 14.6651 12.8278C14.6778 12.9708 14.6541 13.0943 14.5939 13.1983C14.5346 13.3056 14.4297 13.3794 14.2791 13.4198C14.1286 13.4601 14.009 13.4519 13.9204 13.3951C13.8294 13.3427 13.7659 13.2499 13.7303 13.1168C13.6851 12.9484 13.6791 12.7931 13.7118 12.651C13.6072 12.7257 13.4876 12.7811 13.3529 12.8172C13.1819 12.8631 13.0345 12.8605 12.9108 12.8095C12.788 12.7619 12.7019 12.6459 12.6525 12.4615C12.6134 12.3156 12.607 12.1099 12.697 11.9707C12.779 11.839 12.9125 11.7484 13.0972 11.6988C13.1725 11.6787 13.2446 11.6667 13.3132 11.6629C13.3511 11.6589 13.3867 11.6568 13.4198 11.6564C13.3701 11.5168 13.3396 11.3804 13.3284 11.2472C13.3158 11.1042 13.3395 10.9807 13.3997 10.8768C13.4589 10.7694 13.5639 10.6956 13.7144 10.6553C13.865 10.6149 13.9845 10.6231 14.0731 10.6799C14.1642 10.7324 14.2276 10.8251 14.2633 10.9583C14.3084 11.1267 14.3144 11.2819 14.2817 11.4241C14.3863 11.3493 14.5059 11.2939 14.6406 11.2578C14.8117 11.212 14.9591 11.2146 15.0828 11.2656C15.2056 11.3132 15.2917 11.4292 15.3411 11.6135C15.3853 11.7785 15.3931 11.9549 15.2965 12.1043Z" fill="#B0B0B0"/>
<path d="M16.5829 10.3211C16.5322 10.4025 16.4498 10.4585 16.3357 10.4891C16.2891 10.5015 16.2446 10.509 16.2022 10.5113C16.1788 10.5138 16.1569 10.515 16.1364 10.5153C16.1671 10.6015 16.1859 10.6858 16.1929 10.7681C16.2007 10.8564 16.186 10.9327 16.1488 10.9969C16.1122 11.0632 16.0474 11.1088 15.9544 11.1337C15.8614 11.1587 15.7875 11.1536 15.7328 11.1185C15.6766 11.0861 15.6374 11.0288 15.6154 10.9466C15.5875 10.8425 15.5838 10.7466 15.604 10.6588C15.5394 10.705 15.4655 10.7392 15.3823 10.7615C15.2766 10.7898 15.1855 10.7882 15.1091 10.7567C15.0333 10.7273 14.9801 10.6557 14.9496 10.5418C14.9254 10.4516 14.9215 10.3246 14.9771 10.2386C15.0277 10.1572 15.1102 10.1012 15.2243 10.0706C15.2708 10.0582 15.3153 10.0508 15.3577 10.0484C15.3812 10.046 15.4031 10.0447 15.4236 10.0444C15.3929 9.95819 15.374 9.87395 15.3671 9.79166C15.3593 9.70333 15.374 9.62704 15.4111 9.56283C15.4477 9.49652 15.5126 9.45091 15.6056 9.42599C15.6986 9.40106 15.7724 9.40615 15.8271 9.44122C15.8834 9.47361 15.9226 9.53092 15.9446 9.61317C15.9725 9.71719 15.9762 9.8131 15.956 9.90092C16.0206 9.85474 16.0945 9.8205 16.1777 9.79821C16.2834 9.7699 16.3744 9.77149 16.4508 9.80299C16.5267 9.83239 16.5799 9.90405 16.6104 10.0179C16.6377 10.1198 16.6426 10.2289 16.5829 10.3211Z" fill="#B0B0B0"/>
<path d="M27.5699 11.2029C28.7678 11.2659 29.8368 11.5505 30.7643 12.0711H30.7633C31.8277 12.6464 32.6593 13.46 33.2477 14.5057C33.8387 15.5562 34.1256 16.7683 34.1256 18.1258C34.1256 19.5091 33.8311 20.7297 33.2233 21.7693L33.2242 21.7703C32.6334 22.8051 31.7985 23.6061 30.7301 24.1668C29.659 24.7289 28.405 24.9998 26.985 24.9998C25.6763 24.9998 24.5079 24.7421 23.4957 24.2088L23.4899 24.2059C22.4783 23.6575 21.6888 22.8762 21.1285 21.8709L21.1256 21.866C20.5785 20.8564 20.3151 19.6734 20.3151 18.3358L20.3278 17.8201C20.3871 16.6347 20.6546 15.566 21.1422 14.6248C21.6985 13.5513 22.4916 12.7052 23.5162 12.0975C24.5459 11.4868 25.7295 11.1893 27.0494 11.1893L27.5699 11.2029Z" fill="#2F2F2F" stroke="#B0B0B0"/>
<path fill-rule="evenodd" clip-rule="evenodd" d="M31.4023 15.9256C31.7537 16.3025 31.7363 16.8958 31.3634 17.251L27.1235 21.2885C26.7549 21.6395 26.1757 21.6269 25.8224 21.2601L24.0343 19.4037C23.6769 19.0326 23.6848 18.439 24.052 18.0779C24.4192 17.7167 25.0066 17.7247 25.364 18.0957L26.5154 19.2911L30.0908 15.8863C30.4637 15.5312 31.0509 15.5488 31.4023 15.9256Z" fill="#B0B0B0"/>
</svg>
